<mxfile host="app.diagrams.net" agent="Mozilla/5.0 (Windows NT 10.0; Win64; x64) AppleWebKit/537.36 (KHTML, like Gecko) Chrome/134.0.0.0 Safari/537.36 Edg/134.0.0.0" version="26.1.1">
  <diagram id="C5RBs43oDa-KdzZeNtuy" name="Page-1">
    <mxGraphModel dx="999" dy="404" grid="1" gridSize="10" guides="1" tooltips="1" connect="1" arrows="1" fold="1" page="1" pageScale="1" pageWidth="827" pageHeight="1169" math="0" shadow="0">
      <root>
        <mxCell id="WIyWlLk6GJQsqaUBKTNV-0" />
        <mxCell id="WIyWlLk6GJQsqaUBKTNV-1" parent="WIyWlLk6GJQsqaUBKTNV-0" />
        <mxCell id="zkfFHV4jXpPFQw0GAbJ--0" value="Voiture" style="swimlane;fontStyle=0;align=center;verticalAlign=top;childLayout=stackLayout;horizontal=1;startSize=26;horizontalStack=0;resizeParent=1;resizeLast=0;collapsible=1;marginBottom=0;rounded=0;shadow=0;strokeWidth=1;" parent="WIyWlLk6GJQsqaUBKTNV-1" vertex="1">
          <mxGeometry x="60" y="125" width="260" height="195" as="geometry">
            <mxRectangle x="230" y="140" width="160" height="26" as="alternateBounds" />
          </mxGeometry>
        </mxCell>
        <mxCell id="zkfFHV4jXpPFQw0GAbJ--3" value="Marque: String&#xa;Modele: String&#xa;Annee: Int&#xa;TypeDeVoiture: String&#xa;Couleur: String&#xa;TarifJournalier: Double&#xa;Disponibilite: Boolean&#xa;" style="text;align=left;verticalAlign=top;spacingLeft=4;spacingRight=4;overflow=hidden;rotatable=0;points=[[0,0.5],[1,0.5]];portConstraint=eastwest;rounded=0;shadow=0;html=0;" parent="zkfFHV4jXpPFQw0GAbJ--0" vertex="1">
          <mxGeometry y="26" width="260" height="104" as="geometry" />
        </mxCell>
        <mxCell id="zkfFHV4jXpPFQw0GAbJ--4" value="" style="line;html=1;strokeWidth=1;align=left;verticalAlign=middle;spacingTop=-1;spacingLeft=3;spacingRight=3;rotatable=0;labelPosition=right;points=[];portConstraint=eastwest;" parent="zkfFHV4jXpPFQw0GAbJ--0" vertex="1">
          <mxGeometry y="130" width="260" height="8" as="geometry" />
        </mxCell>
        <mxCell id="zkfFHV4jXpPFQw0GAbJ--5" value="VerifierDisponibilite(): Boolean&#xa;CalculerCoutLocation(nbJours: Int): Double&#xa;MettreAJourDisponibilite(etat: Boolean): Unit" style="text;align=left;verticalAlign=top;spacingLeft=4;spacingRight=4;overflow=hidden;rotatable=0;points=[[0,0.5],[1,0.5]];portConstraint=eastwest;" parent="zkfFHV4jXpPFQw0GAbJ--0" vertex="1">
          <mxGeometry y="138" width="260" height="52" as="geometry" />
        </mxCell>
        <mxCell id="zkfFHV4jXpPFQw0GAbJ--6" value="Utilisateur" style="swimlane;fontStyle=0;align=center;verticalAlign=top;childLayout=stackLayout;horizontal=1;startSize=26;horizontalStack=0;resizeParent=1;resizeLast=0;collapsible=1;marginBottom=0;rounded=0;shadow=0;strokeWidth=1;" parent="WIyWlLk6GJQsqaUBKTNV-1" vertex="1">
          <mxGeometry x="250" y="405" width="180" height="180" as="geometry">
            <mxRectangle x="130" y="380" width="160" height="26" as="alternateBounds" />
          </mxGeometry>
        </mxCell>
        <mxCell id="zkfFHV4jXpPFQw0GAbJ--7" value="Nom: String&#xa;Prenom: String&#xa;Email: String&#xa;MotDePasse: String&#xa;Telephone: String" style="text;align=left;verticalAlign=top;spacingLeft=4;spacingRight=4;overflow=hidden;rotatable=0;points=[[0,0.5],[1,0.5]];portConstraint=eastwest;" parent="zkfFHV4jXpPFQw0GAbJ--6" vertex="1">
          <mxGeometry y="26" width="180" height="84" as="geometry" />
        </mxCell>
        <mxCell id="zkfFHV4jXpPFQw0GAbJ--9" value="" style="line;html=1;strokeWidth=1;align=left;verticalAlign=middle;spacingTop=-1;spacingLeft=3;spacingRight=3;rotatable=0;labelPosition=right;points=[];portConstraint=eastwest;" parent="zkfFHV4jXpPFQw0GAbJ--6" vertex="1">
          <mxGeometry y="110" width="180" height="8" as="geometry" />
        </mxCell>
        <mxCell id="zkfFHV4jXpPFQw0GAbJ--10" value="SInscrire(): Boolean&#xa;SeConnecter(Email: String, &#xa;MotDePasse: String): Boolean&#xa;" style="text;align=left;verticalAlign=top;spacingLeft=4;spacingRight=4;overflow=hidden;rotatable=0;points=[[0,0.5],[1,0.5]];portConstraint=eastwest;fontStyle=0" parent="zkfFHV4jXpPFQw0GAbJ--6" vertex="1">
          <mxGeometry y="118" width="180" height="62" as="geometry" />
        </mxCell>
        <mxCell id="zkfFHV4jXpPFQw0GAbJ--13" value="Paiement" style="swimlane;fontStyle=0;align=center;verticalAlign=top;childLayout=stackLayout;horizontal=1;startSize=26;horizontalStack=0;resizeParent=1;resizeLast=0;collapsible=1;marginBottom=0;rounded=0;shadow=0;strokeWidth=1;" parent="WIyWlLk6GJQsqaUBKTNV-1" vertex="1">
          <mxGeometry x="20" y="405" width="190" height="130" as="geometry">
            <mxRectangle x="340" y="380" width="170" height="26" as="alternateBounds" />
          </mxGeometry>
        </mxCell>
        <mxCell id="zkfFHV4jXpPFQw0GAbJ--14" value="MontantTotal: Double&#xa;Methode: String&#xa;Statut: String&#xa;" style="text;align=left;verticalAlign=top;spacingLeft=4;spacingRight=4;overflow=hidden;rotatable=0;points=[[0,0.5],[1,0.5]];portConstraint=eastwest;" parent="zkfFHV4jXpPFQw0GAbJ--13" vertex="1">
          <mxGeometry y="26" width="190" height="54" as="geometry" />
        </mxCell>
        <mxCell id="zkfFHV4jXpPFQw0GAbJ--15" value="" style="line;html=1;strokeWidth=1;align=left;verticalAlign=middle;spacingTop=-1;spacingLeft=3;spacingRight=3;rotatable=0;labelPosition=right;points=[];portConstraint=eastwest;" parent="zkfFHV4jXpPFQw0GAbJ--13" vertex="1">
          <mxGeometry y="80" width="190" height="8" as="geometry" />
        </mxCell>
        <mxCell id="zkfFHV4jXpPFQw0GAbJ--17" value="Reservation" style="swimlane;fontStyle=0;align=center;verticalAlign=top;childLayout=stackLayout;horizontal=1;startSize=26;horizontalStack=0;resizeParent=1;resizeLast=0;collapsible=1;marginBottom=0;rounded=0;shadow=0;strokeWidth=1;" parent="WIyWlLk6GJQsqaUBKTNV-1" vertex="1">
          <mxGeometry x="500" y="155" width="190" height="206" as="geometry">
            <mxRectangle x="550" y="140" width="160" height="26" as="alternateBounds" />
          </mxGeometry>
        </mxCell>
        <mxCell id="zkfFHV4jXpPFQw0GAbJ--18" value="DateDebut: Date&#xa;DateFin: Date&#xa;Etat: String&#xa;Vehicule: Voiture&#xa;Client: Utilisateur&#xa;PrixTotal: Double&#xa;" style="text;align=left;verticalAlign=top;spacingLeft=4;spacingRight=4;overflow=hidden;rotatable=0;points=[[0,0.5],[1,0.5]];portConstraint=eastwest;" parent="zkfFHV4jXpPFQw0GAbJ--17" vertex="1">
          <mxGeometry y="26" width="190" height="92" as="geometry" />
        </mxCell>
        <mxCell id="zkfFHV4jXpPFQw0GAbJ--23" value="" style="line;html=1;strokeWidth=1;align=left;verticalAlign=middle;spacingTop=-1;spacingLeft=3;spacingRight=3;rotatable=0;labelPosition=right;points=[];portConstraint=eastwest;" parent="zkfFHV4jXpPFQw0GAbJ--17" vertex="1">
          <mxGeometry y="118" width="190" height="10" as="geometry" />
        </mxCell>
        <mxCell id="zkfFHV4jXpPFQw0GAbJ--24" value="ConfirmerReservation(): Boolean&#xa;AnnulerReservation(): Boolean&#xa;CalculerDuree(): Int&#xa;CalculerPrixTotal(): Double&#xa;" style="text;align=left;verticalAlign=top;spacingLeft=4;spacingRight=4;overflow=hidden;rotatable=0;points=[[0,0.5],[1,0.5]];portConstraint=eastwest;" parent="zkfFHV4jXpPFQw0GAbJ--17" vertex="1">
          <mxGeometry y="128" width="190" height="66" as="geometry" />
        </mxCell>
        <mxCell id="dlQvrzCghN_BrbJXEZEQ-11" value="ServiceLocation" style="swimlane;fontStyle=0;align=center;verticalAlign=top;childLayout=stackLayout;horizontal=1;startSize=26;horizontalStack=0;resizeParent=1;resizeLast=0;collapsible=1;marginBottom=0;rounded=0;shadow=0;strokeWidth=1;" parent="WIyWlLk6GJQsqaUBKTNV-1" vertex="1">
          <mxGeometry x="480" y="405" width="320" height="150" as="geometry">
            <mxRectangle x="340" y="380" width="170" height="26" as="alternateBounds" />
          </mxGeometry>
        </mxCell>
        <mxCell id="dlQvrzCghN_BrbJXEZEQ-13" value="" style="line;html=1;strokeWidth=1;align=left;verticalAlign=middle;spacingTop=-1;spacingLeft=3;spacingRight=3;rotatable=0;labelPosition=right;points=[];portConstraint=eastwest;" parent="dlQvrzCghN_BrbJXEZEQ-11" vertex="1">
          <mxGeometry y="26" width="320" height="36" as="geometry" />
        </mxCell>
        <mxCell id="dlQvrzCghN_BrbJXEZEQ-15" value="ChercherVehicule(emplacement: Map&lt;String&gt;):&#xa;List&lt;Vehicules&gt;&#xa;CreerReservation(utilisateur: Utilisateur, vehicule: Voiture, &#xa;DateDebut: Date, DateFin: Date): Reservation&#xa;GenererFacture(reservation: Reservation): Paiement" style="text;align=left;verticalAlign=top;spacingLeft=4;spacingRight=4;overflow=hidden;rotatable=0;points=[[0,0.5],[1,0.5]];portConstraint=eastwest;" parent="dlQvrzCghN_BrbJXEZEQ-11" vertex="1">
          <mxGeometry y="62" width="320" height="78" as="geometry" />
        </mxCell>
        <mxCell id="dlQvrzCghN_BrbJXEZEQ-27" value="1..*" style="text;html=1;align=center;verticalAlign=middle;resizable=0;points=[];autosize=1;strokeColor=none;fillColor=none;" parent="WIyWlLk6GJQsqaUBKTNV-1" vertex="1">
          <mxGeometry x="374" y="70" width="40" height="30" as="geometry" />
        </mxCell>
        <mxCell id="dlQvrzCghN_BrbJXEZEQ-36" value="" style="endArrow=none;html=1;edgeStyle=orthogonalEdgeStyle;rounded=0;entryX=0.5;entryY=0;entryDx=0;entryDy=0;" parent="WIyWlLk6GJQsqaUBKTNV-1" edge="1" target="zkfFHV4jXpPFQw0GAbJ--17">
          <mxGeometry relative="1" as="geometry">
            <mxPoint x="180" y="125" as="sourcePoint" />
            <mxPoint x="600" y="125" as="targetPoint" />
            <Array as="points">
              <mxPoint x="180" y="100" />
              <mxPoint x="600" y="100" />
              <mxPoint x="600" y="155" />
            </Array>
          </mxGeometry>
        </mxCell>
        <mxCell id="dlQvrzCghN_BrbJXEZEQ-39" value="" style="endArrow=none;html=1;edgeStyle=orthogonalEdgeStyle;rounded=0;entryX=0.002;entryY=0.072;entryDx=0;entryDy=0;entryPerimeter=0;" parent="WIyWlLk6GJQsqaUBKTNV-1" edge="1" target="zkfFHV4jXpPFQw0GAbJ--17" source="zkfFHV4jXpPFQw0GAbJ--6">
          <mxGeometry relative="1" as="geometry">
            <mxPoint x="335.92999999999995" y="420.13000000000005" as="sourcePoint" />
            <mxPoint x="490" y="170" as="targetPoint" />
            <Array as="points">
              <mxPoint x="350" y="170" />
              <mxPoint x="490" y="170" />
            </Array>
          </mxGeometry>
        </mxCell>
        <mxCell id="dlQvrzCghN_BrbJXEZEQ-43" value="VoitureElectrique" style="swimlane;fontStyle=0;align=center;verticalAlign=top;childLayout=stackLayout;horizontal=1;startSize=26;horizontalStack=0;resizeParent=1;resizeLast=0;collapsible=1;marginBottom=0;rounded=0;shadow=0;strokeWidth=1;" parent="WIyWlLk6GJQsqaUBKTNV-1" vertex="1">
          <mxGeometry x="20" y="620" width="200" height="130" as="geometry">
            <mxRectangle x="340" y="380" width="170" height="26" as="alternateBounds" />
          </mxGeometry>
        </mxCell>
        <mxCell id="dlQvrzCghN_BrbJXEZEQ-44" value="CapaciteBatterie: Int&#xa;TempsRecharge: Double&#xa;Autonomie: Int" style="text;align=left;verticalAlign=top;spacingLeft=4;spacingRight=4;overflow=hidden;rotatable=0;points=[[0,0.5],[1,0.5]];portConstraint=eastwest;" parent="dlQvrzCghN_BrbJXEZEQ-43" vertex="1">
          <mxGeometry y="26" width="200" height="54" as="geometry" />
        </mxCell>
        <mxCell id="dlQvrzCghN_BrbJXEZEQ-45" value="" style="line;html=1;strokeWidth=1;align=left;verticalAlign=middle;spacingTop=-1;spacingLeft=3;spacingRight=3;rotatable=0;labelPosition=right;points=[];portConstraint=eastwest;" parent="dlQvrzCghN_BrbJXEZEQ-43" vertex="1">
          <mxGeometry y="80" width="200" height="8" as="geometry" />
        </mxCell>
        <mxCell id="dlQvrzCghN_BrbJXEZEQ-46" value="Recharger(): void&#xa;AfficherEtatBatterie(): void " style="text;align=left;verticalAlign=top;spacingLeft=4;spacingRight=4;overflow=hidden;rotatable=0;points=[[0,0.5],[1,0.5]];portConstraint=eastwest;fontStyle=0" parent="dlQvrzCghN_BrbJXEZEQ-43" vertex="1">
          <mxGeometry y="88" width="200" height="42" as="geometry" />
        </mxCell>
        <mxCell id="dlQvrzCghN_BrbJXEZEQ-47" value="VoitureHybride" style="swimlane;fontStyle=0;align=center;verticalAlign=top;childLayout=stackLayout;horizontal=1;startSize=26;horizontalStack=0;resizeParent=1;resizeLast=0;collapsible=1;marginBottom=0;rounded=0;shadow=0;strokeWidth=1;" parent="WIyWlLk6GJQsqaUBKTNV-1" vertex="1">
          <mxGeometry x="264" y="620" width="260" height="220" as="geometry">
            <mxRectangle x="340" y="380" width="170" height="26" as="alternateBounds" />
          </mxGeometry>
        </mxCell>
        <mxCell id="dlQvrzCghN_BrbJXEZEQ-48" value="CapaciteBatterie: Int&#xa;CapaciteReservoirCarburant: Int &#xa;ConsommationCarburant: Double&#xa;PourcentageBatterie: Int&#xa;TempsRecharge: Double" style="text;align=left;verticalAlign=top;spacingLeft=4;spacingRight=4;overflow=hidden;rotatable=0;points=[[0,0.5],[1,0.5]];portConstraint=eastwest;" parent="dlQvrzCghN_BrbJXEZEQ-47" vertex="1">
          <mxGeometry y="26" width="260" height="84" as="geometry" />
        </mxCell>
        <mxCell id="dlQvrzCghN_BrbJXEZEQ-49" value="" style="line;html=1;strokeWidth=1;align=left;verticalAlign=middle;spacingTop=-1;spacingLeft=3;spacingRight=3;rotatable=0;labelPosition=right;points=[];portConstraint=eastwest;" parent="dlQvrzCghN_BrbJXEZEQ-47" vertex="1">
          <mxGeometry y="110" width="260" height="8" as="geometry" />
        </mxCell>
        <mxCell id="dlQvrzCghN_BrbJXEZEQ-50" value="Recharger(): void&#xa;FaireLePlein(): void&#xa;PasserEnModeElectrique(): void&#xa;PasserEnModeEssence(): void&#xa;AfficherEtatBatterie(): void&#xa;VerifierNiveauCarburant(): void" style="text;align=left;verticalAlign=top;spacingLeft=4;spacingRight=4;overflow=hidden;rotatable=0;points=[[0,0.5],[1,0.5]];portConstraint=eastwest;" parent="dlQvrzCghN_BrbJXEZEQ-47" vertex="1">
          <mxGeometry y="118" width="260" height="102" as="geometry" />
        </mxCell>
        <mxCell id="dlQvrzCghN_BrbJXEZEQ-51" value="VoitureEssence" style="swimlane;fontStyle=0;align=center;verticalAlign=top;childLayout=stackLayout;horizontal=1;startSize=26;horizontalStack=0;resizeParent=1;resizeLast=0;collapsible=1;marginBottom=0;rounded=0;shadow=0;strokeWidth=1;" parent="WIyWlLk6GJQsqaUBKTNV-1" vertex="1">
          <mxGeometry x="550" y="620" width="200" height="120" as="geometry">
            <mxRectangle x="340" y="380" width="170" height="26" as="alternateBounds" />
          </mxGeometry>
        </mxCell>
        <mxCell id="dlQvrzCghN_BrbJXEZEQ-52" value="CapaciteReservoirCarburant: Int&#xa;ConsommationCarburant: Double" style="text;align=left;verticalAlign=top;spacingLeft=4;spacingRight=4;overflow=hidden;rotatable=0;points=[[0,0.5],[1,0.5]];portConstraint=eastwest;" parent="dlQvrzCghN_BrbJXEZEQ-51" vertex="1">
          <mxGeometry y="26" width="200" height="44" as="geometry" />
        </mxCell>
        <mxCell id="dlQvrzCghN_BrbJXEZEQ-53" value="" style="line;html=1;strokeWidth=1;align=left;verticalAlign=middle;spacingTop=-1;spacingLeft=3;spacingRight=3;rotatable=0;labelPosition=right;points=[];portConstraint=eastwest;" parent="dlQvrzCghN_BrbJXEZEQ-51" vertex="1">
          <mxGeometry y="70" width="200" height="8" as="geometry" />
        </mxCell>
        <mxCell id="dlQvrzCghN_BrbJXEZEQ-54" value="FaireLePlein(): void&#xa;VerifierNiveauCarburant(): void" style="text;align=left;verticalAlign=top;spacingLeft=4;spacingRight=4;overflow=hidden;rotatable=0;points=[[0,0.5],[1,0.5]];portConstraint=eastwest;" parent="dlQvrzCghN_BrbJXEZEQ-51" vertex="1">
          <mxGeometry y="78" width="200" height="40" as="geometry" />
        </mxCell>
        <mxCell id="tj7TAgUNNIXZ5p9P2qvR-0" value="" style="endArrow=block;endFill=0;endSize=12;html=1;rounded=0;exitX=0.5;exitY=0;exitDx=0;exitDy=0;" edge="1" parent="WIyWlLk6GJQsqaUBKTNV-1">
          <mxGeometry width="160" relative="1" as="geometry">
            <mxPoint x="100" y="620" as="sourcePoint" />
            <mxPoint x="220" y="320" as="targetPoint" />
            <Array as="points">
              <mxPoint x="100" y="590" />
              <mxPoint x="160" y="590" />
              <mxPoint x="220" y="590" />
              <mxPoint x="220" y="397" />
            </Array>
          </mxGeometry>
        </mxCell>
        <mxCell id="dlQvrzCghN_BrbJXEZEQ-10" value="ConfirmerPaiement(): Boolean&#xa;AnnulationPaiement(): Boolean&#xa;" style="text;align=left;verticalAlign=top;spacingLeft=4;spacingRight=4;overflow=hidden;rotatable=0;points=[[0,0.5],[1,0.5]];portConstraint=eastwest;" parent="WIyWlLk6GJQsqaUBKTNV-1" vertex="1">
          <mxGeometry x="20" y="493" width="200" height="40" as="geometry" />
        </mxCell>
        <mxCell id="tj7TAgUNNIXZ5p9P2qvR-1" value="" style="endArrow=block;endFill=0;endSize=12;html=1;rounded=0;" edge="1" parent="WIyWlLk6GJQsqaUBKTNV-1">
          <mxGeometry width="160" relative="1" as="geometry">
            <mxPoint x="360.16" y="620" as="sourcePoint" />
            <mxPoint x="240" y="320" as="targetPoint" />
            <Array as="points">
              <mxPoint x="360.16" y="600" />
              <mxPoint x="360.16" y="590" />
              <mxPoint x="240" y="590.0000000000001" />
              <mxPoint x="240" y="557.0000000000001" />
              <mxPoint x="240" y="397" />
            </Array>
          </mxGeometry>
        </mxCell>
        <mxCell id="tj7TAgUNNIXZ5p9P2qvR-2" value="" style="endArrow=block;endFill=0;endSize=12;html=1;rounded=0;entryX=1.006;entryY=0.951;entryDx=0;entryDy=0;entryPerimeter=0;" edge="1" parent="WIyWlLk6GJQsqaUBKTNV-1" target="zkfFHV4jXpPFQw0GAbJ--3">
          <mxGeometry width="160" relative="1" as="geometry">
            <mxPoint x="640" y="620" as="sourcePoint" />
            <mxPoint x="400" y="250" as="targetPoint" />
            <Array as="points">
              <mxPoint x="640" y="600" />
              <mxPoint x="450" y="600.0000000000001" />
              <mxPoint x="450" y="567.0000000000001" />
              <mxPoint x="450" y="407" />
              <mxPoint x="450" y="250" />
            </Array>
          </mxGeometry>
        </mxCell>
        <mxCell id="tj7TAgUNNIXZ5p9P2qvR-4" value="" style="endArrow=diamondThin;endFill=1;endSize=24;html=1;rounded=0;exitX=0.526;exitY=-0.001;exitDx=0;exitDy=0;exitPerimeter=0;" edge="1" parent="WIyWlLk6GJQsqaUBKTNV-1">
          <mxGeometry width="160" relative="1" as="geometry">
            <mxPoint x="90.00000000000006" y="404.87" as="sourcePoint" />
            <mxPoint x="500" y="350" as="targetPoint" />
            <Array as="points">
              <mxPoint x="90" y="350" />
              <mxPoint x="340" y="350" />
              <mxPoint x="480" y="350" />
            </Array>
          </mxGeometry>
        </mxCell>
        <mxCell id="tj7TAgUNNIXZ5p9P2qvR-5" value="" style="endArrow=diamondThin;endFill=1;endSize=24;html=1;rounded=0;exitX=0.375;exitY=0.008;exitDx=0;exitDy=0;exitPerimeter=0;" edge="1" parent="WIyWlLk6GJQsqaUBKTNV-1">
          <mxGeometry width="160" relative="1" as="geometry">
            <mxPoint x="600" y="405.00000000000006" as="sourcePoint" />
            <mxPoint x="600" y="388.56" as="targetPoint" />
            <Array as="points">
              <mxPoint x="600" y="378.56" />
            </Array>
          </mxGeometry>
        </mxCell>
        <mxCell id="tj7TAgUNNIXZ5p9P2qvR-6" value="" style="endArrow=diamondThin;endFill=1;endSize=24;html=1;rounded=0;" edge="1" parent="WIyWlLk6GJQsqaUBKTNV-1">
          <mxGeometry width="160" relative="1" as="geometry">
            <mxPoint x="430" y="420" as="sourcePoint" />
            <mxPoint x="480" y="420" as="targetPoint" />
            <Array as="points">
              <mxPoint x="430" y="420.15" />
            </Array>
          </mxGeometry>
        </mxCell>
        <mxCell id="tj7TAgUNNIXZ5p9P2qvR-8" value="" style="endArrow=diamondThin;endFill=1;endSize=24;html=1;rounded=0;entryX=0.126;entryY=0.001;entryDx=0;entryDy=0;entryPerimeter=0;" edge="1" parent="WIyWlLk6GJQsqaUBKTNV-1" target="dlQvrzCghN_BrbJXEZEQ-11">
          <mxGeometry width="160" relative="1" as="geometry">
            <mxPoint x="270" y="320" as="sourcePoint" />
            <mxPoint x="520" y="400" as="targetPoint" />
            <Array as="points">
              <mxPoint x="270" y="370" />
              <mxPoint x="520" y="370" />
            </Array>
          </mxGeometry>
        </mxCell>
        <mxCell id="dlQvrzCghN_BrbJXEZEQ-21" value="1..*" style="text;html=1;align=center;verticalAlign=middle;resizable=0;points=[];autosize=1;strokeColor=none;fillColor=none;" parent="WIyWlLk6GJQsqaUBKTNV-1" vertex="1">
          <mxGeometry x="400" y="140" width="40" height="30" as="geometry" />
        </mxCell>
      </root>
    </mxGraphModel>
  </diagram>
</mxfile>
